<?xml version="1.0" encoding="UTF-8"?>
<svg id="Layer_2" xmlns="http://www.w3.org/2000/svg" baseProfile="tiny" version="1.2" viewBox="0 0 4000 1000">
  <!-- Generator: Adobe Illustrator 29.8.3, SVG Export Plug-In . SVG Version: 2.1.1 Build 3)  -->
  <path d="M0,0h171.02v440.92c0,13.9,11.28,25.13,25.19,25.13,12.98,0,81.8-.22,95.39-.22,29.78,0,56.39,99.76,93.69,137.93s90.5,49.73,178.99,49.73c36.57,0,74.33-3.48,99.46-6.38,16.37-1.89,31.48-8.51,46.14-16.04s29.63-15.24,48.42-14.3c34.7,1.73,34.7,17.35,58.99,23.42s44.24,8.67,72.87,10.41,50.31-.87,68.53,17.35,26.02,29.49,61.59,26.89,36.43-12.14,45.98-20.82,15.66-17.04,29.54-17.04,139.91,21.96,207.28,12.71c92.74-12.74,107.35-72.09,111.33-92.53s11.57,21.98,81.25,13.59c6.03-.73,11.44-3.6,41.35,26.31,9.54,9.54,22.84,24.87,29.78,24.87s14.75-.87,21.69,5.2,15.61,18.22,36.43,19.95,28.46,30.99,39.33,22.84c6.94-5.2,22.89,5.45,33.54,9.25,16.19,5.78,30.07-12.14,34.7,0,5.46,14.34,5.2,13.12,27.76,16.97s14.75,11.66,37.3,20.33,24.29.87,30.36,4.34,10.41,12.14,17.35,17.35,14.75,3.47,19.95,7.81,3.47,9.54,9.54,11.28,40.77,1.73,46.84,6.94,15.61,13.88,32.96,19.08,137.5,45.38,191.71,24.29c84.72-32.96,79.81-56.39,88.48-56.39,5.01,0,22.2,4.64,52.22,7.38,21.93,2,41.16,41.74,77.04,39.18,28.27-2.02,51.61-46.35,67.66-53.78,32.21-14.92,52.03-34.7,65.93-30.07,20.82,6.94,77.2,69.4,98.89,79.81s71.13,30.36,144,6.94,95.42-52.05,125.78-66.8,85.88-13.01,99.76-19.95,9.54-17.24,38.17-17.73,35.57,15.13,46.84,13.39,38.17-9.43,47.71-13.39,31.66-26.95,43.37-28.25,22.12-15.61,30.8-17.35,18.07,4.92,21.54,8.39,8.39,12.43,15.33,11.13,14.35-12.87,22.27-12.87c16.19,0,25.99,9,37.59,6.8,6.2-1.18,9.98-14.46,24.29-14.89s22.55,1.01,30.36-5.49,20.82,4.77,31.23,6.07,20.39-7.37,31.23-6.07,6.51,8.67,12.14,6.51,9.11-7.81,16.92-5.64,11.71,8.24,17.35,8.24,6.51-7.81,16.48-9.98,31.23-15.18,51.18-9.54,36.87-13.45,48.14-7.81,24.83,19.51,30.36,26.89c13.37,17.83,15.46,34.24,39.61,53.31,23.29,18.39,62.96,23.76,115.59,23.76,55.52,0,90.26-29.36,90.26-93.51C3824.77,619.94,3823.07,0,3823.07,0h176.93" fill="none" stroke="#000" stroke-miterlimit="10"/>
</svg>