<?xml version="1.0" encoding="UTF-8"?>
<svg id="Layer_1" xmlns="http://www.w3.org/2000/svg" baseProfile="tiny" version="1.2" viewBox="0 0 4000 1000">
  <!-- Generator: Adobe Illustrator 29.8.3, SVG Export Plug-In . SVG Version: 2.1.1 Build 3)  -->
  <path d="M0,0h100v959.41s125.24,7.81,143.46,0,45.54-37.73,67.66-39.04,26.02,10.41,33.83,9.11,14.31-10.41,18.22-6.51,7.81,18.22,7.81,18.22c0,0,5.2,10.41,11.71,5.2s24.58.72,34.84-1.01c4.06-.69,17.49-11.42,29.2-16.63s23.13-14.89,28.34-18.8,27.33-22.12,41.64-19.52,55.95,19.52,59.86,19.52,39.04-1.3,54.65-1.3,123.18-9.98,165.25-23.42c44.66-14.27,62.46-41.64,66.36-50.75s7.81,5.2,16.92,5.2,13.01-83.28,23.42-76.77,28.63,14.31,45.54,18.22,41.64,7.81,81.98-6.51,81.98-76.77,93.69-87.18,13.01,62.46,24.72,65.06,11.02-104.52,24.03-104.52,64.45-45.12,72.26-38.62,32.65-.08,32.65-.08c0,0,8.99-10.33,10.29-3.83s9.83,8.39,9.83,3.18,15.16-7.63,21.11-12.43c4.53-3.66,10.7,2.75,10.7,2.75,0,0,5.49-3.47,8.1-7.37s20.53-13.45,21.83-9.54,10.41,7.81,10.41,7.81c0,0-.58-6.8,8.53-5.49s30.94-6.94,30.94-6.94c0,0-26.46,13.73-10.84,16.34s22.12-11.71,23.42-15.61,3.9-10.41,13.01-13.01,16.47,1.9,16.47,1.9c0,0,.23-.33,1.02-4.51.58-3.04,38.75-25.59,41.35-17.78s2.6-2.89,3.47-3.47.8.34,2.43,1.04,8.27-7.08,8.63-5.72,3.98,6.42,8.89,6.13-4.92-4.34-4.34-6.94,3.47-3.47,9.54-5.2,9.54-2.6,8.39-.58-5.49,1.73-4.34,5.49,5.2,10.99,7.52,6.65,2.31-.87,2.89-7.23-3.83-3.59-.07-4.75,7.88-6.53,9.32-3.93,1.16,2.31.58,5.2-5.41,7.23.47,5.49,9.65.87,7.62-4.05-4.63-4.92-2.02-6.07,7.23-.58,8.39,1.73,1.16,2.89,1.16,4.63,4.34,5.78,5.2,1.73,1.73-3.47.29-6.36-4.24-4.92.77-4.05,5.3-1.16,6.74,2.02-4.63,4.34,1.45,4.92,7.81,1.45,6.94-2.02-5.35-3.61-4.19-4.48,3.04-2.75,7.37-2.17,15.61-9.25,19.66-9.83,9.83-6.36,18.22-10.41,19.66.87,42.22-11.28c22.55-12.14,58.12-9.83,58.12-9.83,0,0,142.14,6.76,183.61-8.97s63.61-42.22,67.66-48-.87.58,6.36,4.92,6.19,52.05,16.83,50.02,47.36-18.22,48.23-29.78,1.73-34.99,5.2-35.86c13.93-3.48-17.35-75.47-.87-74.17s16.05-11.71,20.39-6.51,97.59,25.16,114.51,36.87,54.65,31.23,104.1,62.46,188.67,83.28,244.63,80.67,110.6-27.33,130.12-37.73,59.86-68.96,79.37-54.65-66.36,57.25,0,114.51,152.24,183.47,212.1,218.6,92.39,63.76,132.72,32.53,74.79-483.64,92.39-473.64c22.12,12.58,161.28.84,140.53,26.02-42.41,51.46,61.12,39.91,134.02,42.94,51.05,2.12,134.22-.32,177.79-1.9,17.19-.62,29.97-12.84,37.36-28.35,0,0,4.61-11.68,6.78-8.21s-2.02,39.76,24,38.46-10.41-71.57,0-81.98,37.88-10.55,74.6-21.54c38.11-11.4,78.94-77.35,82.84-81.25s0,753.4,0,753.4l139.19-1.3" fill="#fff" stroke="#231f20" stroke-miterlimit="10"/>
</svg>